<?xml version="1.0" encoding="UTF-8"?>
<svg id="a" data-name="Layer_1" xmlns="http://www.w3.org/2000/svg" viewBox="0 0 248 248">
  <defs>
    <style>
      .b {
        fill: #5ebdeb;
      }
    </style>
  </defs>
  <path class="b" d="M248,211.25c-.21.93-.39,1.87-.63,2.8-1.63,6.26-9.06,9.42-14.69,6.15-13.64-7.9-27.24-15.88-40.89-23.76-1.38-.8-1.84-1.66-1.83-3.23.06-14.34.06-28.68,0-43.02,0-1.48.46-2.28,1.74-3.01,12.83-7.38,25.72-14.66,38.37-22.33,6.42-3.89,13.36-4.33,17.94,4.67v81.72Z"/>
  <path class="b" d="M96.18,231.41c-19.82,0-39.64,0-59.46,0-8.29,0-15.23-2.93-20.45-9.52-3.2-4.03-5.06-8.67-5.09-13.79-.1-24.66-.15-49.32,0-73.98.05-7.81,3.7-14.06,10.16-18.51.72-.5,2.15-.61,2.96-.25,18.46,8.29,36.37,7.25,53.8-2.97.78-.46,1.79-.71,2.7-.72,10.31-.05,20.63-.05,30.94,0,.97,0,2.05.36,2.9.86,16.96,9.95,34.47,10.97,52.45,3.12,2.21-.97,3.66-.65,5.36.75,5.87,4.85,9.17,11.08,9.22,18.64.14,24.09.14,48.19.01,72.29-.07,13.62-11.1,24-25.31,24.04-20.06.06-40.13.01-60.19.02Z"/>
  <path class="b" d="M96.28,58.71c3.57-26.37,25.56-43.07,48.76-42.56,27.19.59,47.02,22.73,47.04,47.83.02,25.09-19.4,46.52-45.44,47.94-23.88,1.3-46.77-15.67-50.35-42.61-2.28,14.81-9.26,26.76-21.87,34.91-12.62,8.16-26.38,10.03-40.68,5.44C12.03,102.7-1.11,82.83.55,60.13c1.54-21.05,18.31-39.77,38.76-43.17,13.65-2.27,26.27.28,37.49,8.57,11.18,8.26,17.37,19.53,19.49,33.19ZM67.78,65.12c.73-9.51-6.21-20.03-18.74-20.57-10.15-.44-18.78,6.42-20.02,16.39-1.65,13.23,8.06,21.95,18.12,22.62,10.75.71,20.32-7.67,20.65-18.44ZM124.65,63.82c-.1,10.71,8.62,19.65,19.28,19.8,10.76.14,19.74-8.69,19.83-19.51.09-10.57-8.71-19.67-19.48-19.61-11.63.06-19.51,8.82-19.63,19.32Z"/>
</svg>